<mxfile host="Electron" modified="2023-07-10T15:51:54.689Z" agent="Mozilla/5.0 (Windows NT 10.0; Win64; x64) AppleWebKit/537.36 (KHTML, like Gecko) draw.io/21.6.1 Chrome/112.0.5615.204 Electron/24.6.1 Safari/537.36" etag="LdDVomQE2ZmFQjpqDdra" version="21.6.1" type="device">
  <diagram name="Page-1" id="ZA7W9wEC67CzYFfC2n_6">
    <mxGraphModel dx="1553" dy="1172" grid="0" gridSize="10" guides="1" tooltips="1" connect="1" arrows="1" fold="1" page="0" pageScale="1" pageWidth="850" pageHeight="1100" math="0" shadow="0">
      <root>
        <mxCell id="0" />
        <mxCell id="1" parent="0" />
        <mxCell id="RtNyYYyS6tUQ_TJv5VPJ-2" value="" style="endArrow=classic;html=1;rounded=0;fontSize=12;startSize=8;endSize=8;curved=1;" edge="1" parent="1">
          <mxGeometry width="50" height="50" relative="1" as="geometry">
            <mxPoint x="-278" y="175" as="sourcePoint" />
            <mxPoint x="622.6666666666666" y="175" as="targetPoint" />
          </mxGeometry>
        </mxCell>
        <mxCell id="RtNyYYyS6tUQ_TJv5VPJ-6" value="&lt;font style=&quot;font-size: 10px;&quot;&gt;10&lt;/font&gt;" style="edgeLabel;html=1;align=center;verticalAlign=middle;resizable=0;points=[];fontSize=16;" vertex="1" connectable="0" parent="RtNyYYyS6tUQ_TJv5VPJ-2">
          <mxGeometry x="-0.6538" y="-1" relative="1" as="geometry">
            <mxPoint x="-76" y="10" as="offset" />
          </mxGeometry>
        </mxCell>
        <mxCell id="RtNyYYyS6tUQ_TJv5VPJ-3" value="" style="endArrow=classic;html=1;rounded=0;fontSize=12;startSize=8;endSize=8;curved=1;" edge="1" parent="1">
          <mxGeometry width="50" height="50" relative="1" as="geometry">
            <mxPoint x="-278" y="174" as="sourcePoint" />
            <mxPoint x="-278" y="26" as="targetPoint" />
          </mxGeometry>
        </mxCell>
        <mxCell id="RtNyYYyS6tUQ_TJv5VPJ-4" value="" style="rounded=0;whiteSpace=wrap;html=1;fontSize=16;fillColor=#dae8fc;strokeColor=#6c8ebf;" vertex="1" parent="1">
          <mxGeometry x="-278" y="135" width="20" height="40" as="geometry" />
        </mxCell>
        <mxCell id="RtNyYYyS6tUQ_TJv5VPJ-8" value="&lt;font style=&quot;font-size: 10px;&quot;&gt;20&lt;/font&gt;" style="edgeLabel;html=1;align=center;verticalAlign=middle;resizable=0;points=[];fontSize=16;" vertex="1" connectable="0" parent="1">
          <mxGeometry x="-118.00333333333337" y="185.99999999999994" as="geometry" />
        </mxCell>
        <mxCell id="RtNyYYyS6tUQ_TJv5VPJ-13" value="" style="rounded=0;whiteSpace=wrap;html=1;fontSize=16;fillColor=#dae8fc;strokeColor=#6c8ebf;" vertex="1" parent="1">
          <mxGeometry x="-198" y="135" width="20" height="40" as="geometry" />
        </mxCell>
        <mxCell id="RtNyYYyS6tUQ_TJv5VPJ-14" value="" style="rounded=0;whiteSpace=wrap;html=1;fontSize=16;fillColor=#dae8fc;strokeColor=#6c8ebf;" vertex="1" parent="1">
          <mxGeometry x="-118" y="135" width="20" height="40" as="geometry" />
        </mxCell>
        <mxCell id="RtNyYYyS6tUQ_TJv5VPJ-15" value="" style="rounded=0;whiteSpace=wrap;html=1;fontSize=16;fillColor=#dae8fc;strokeColor=#6c8ebf;" vertex="1" parent="1">
          <mxGeometry x="-38" y="135" width="20" height="40" as="geometry" />
        </mxCell>
        <mxCell id="RtNyYYyS6tUQ_TJv5VPJ-16" value="" style="rounded=0;whiteSpace=wrap;html=1;fontSize=16;fillColor=#dae8fc;strokeColor=#6c8ebf;" vertex="1" parent="1">
          <mxGeometry x="42" y="135" width="20" height="40" as="geometry" />
        </mxCell>
        <mxCell id="RtNyYYyS6tUQ_TJv5VPJ-17" value="" style="rounded=0;whiteSpace=wrap;html=1;fontSize=16;fillColor=#dae8fc;strokeColor=#6c8ebf;" vertex="1" parent="1">
          <mxGeometry x="122" y="135" width="20" height="40" as="geometry" />
        </mxCell>
        <mxCell id="RtNyYYyS6tUQ_TJv5VPJ-18" value="" style="rounded=0;whiteSpace=wrap;html=1;fontSize=16;fillColor=#dae8fc;strokeColor=#6c8ebf;" vertex="1" parent="1">
          <mxGeometry x="202" y="135" width="20" height="40" as="geometry" />
        </mxCell>
        <mxCell id="RtNyYYyS6tUQ_TJv5VPJ-19" value="" style="rounded=0;whiteSpace=wrap;html=1;fontSize=16;fillColor=#dae8fc;strokeColor=#6c8ebf;" vertex="1" parent="1">
          <mxGeometry x="282" y="135" width="20" height="40" as="geometry" />
        </mxCell>
        <mxCell id="RtNyYYyS6tUQ_TJv5VPJ-20" value="" style="rounded=0;whiteSpace=wrap;html=1;fontSize=16;fillColor=#dae8fc;strokeColor=#6c8ebf;" vertex="1" parent="1">
          <mxGeometry x="362" y="135" width="20" height="40" as="geometry" />
        </mxCell>
        <mxCell id="RtNyYYyS6tUQ_TJv5VPJ-21" value="" style="rounded=0;whiteSpace=wrap;html=1;fontSize=16;fillColor=#dae8fc;strokeColor=#6c8ebf;" vertex="1" parent="1">
          <mxGeometry x="442" y="135" width="20" height="40" as="geometry" />
        </mxCell>
        <mxCell id="RtNyYYyS6tUQ_TJv5VPJ-22" value="" style="rounded=0;whiteSpace=wrap;html=1;fontSize=16;fillColor=#dae8fc;strokeColor=#6c8ebf;" vertex="1" parent="1">
          <mxGeometry x="522" y="135" width="20" height="40" as="geometry" />
        </mxCell>
        <mxCell id="RtNyYYyS6tUQ_TJv5VPJ-25" value="&lt;font style=&quot;font-size: 10px;&quot;&gt;40&lt;/font&gt;" style="edgeLabel;html=1;align=center;verticalAlign=middle;resizable=0;points=[];fontSize=16;" vertex="1" connectable="0" parent="1">
          <mxGeometry x="42" y="186" as="geometry" />
        </mxCell>
        <mxCell id="RtNyYYyS6tUQ_TJv5VPJ-26" value="&lt;font style=&quot;font-size: 10px;&quot;&gt;30&lt;/font&gt;" style="edgeLabel;html=1;align=center;verticalAlign=middle;resizable=0;points=[];fontSize=16;" vertex="1" connectable="0" parent="1">
          <mxGeometry x="-38" y="186" as="geometry" />
        </mxCell>
        <mxCell id="RtNyYYyS6tUQ_TJv5VPJ-27" value="&lt;font style=&quot;font-size: 10px;&quot;&gt;50&lt;/font&gt;" style="edgeLabel;html=1;align=center;verticalAlign=middle;resizable=0;points=[];fontSize=16;" vertex="1" connectable="0" parent="1">
          <mxGeometry x="122" y="186" as="geometry" />
        </mxCell>
        <mxCell id="RtNyYYyS6tUQ_TJv5VPJ-28" value="&lt;font style=&quot;font-size: 10px;&quot;&gt;60&lt;/font&gt;" style="edgeLabel;html=1;align=center;verticalAlign=middle;resizable=0;points=[];fontSize=16;" vertex="1" connectable="0" parent="1">
          <mxGeometry x="202" y="186" as="geometry" />
        </mxCell>
        <mxCell id="RtNyYYyS6tUQ_TJv5VPJ-29" value="&lt;font style=&quot;font-size: 10px;&quot;&gt;0&lt;/font&gt;" style="edgeLabel;html=1;align=center;verticalAlign=middle;resizable=0;points=[];fontSize=16;" vertex="1" connectable="0" parent="1">
          <mxGeometry x="-278" y="193" as="geometry">
            <mxPoint x="4" y="-8" as="offset" />
          </mxGeometry>
        </mxCell>
        <mxCell id="RtNyYYyS6tUQ_TJv5VPJ-33" value="&lt;font style=&quot;font-size: 10px;&quot;&gt;80&lt;/font&gt;" style="edgeLabel;html=1;align=center;verticalAlign=middle;resizable=0;points=[];fontSize=16;" vertex="1" connectable="0" parent="1">
          <mxGeometry x="362" y="186" as="geometry" />
        </mxCell>
        <mxCell id="RtNyYYyS6tUQ_TJv5VPJ-34" value="&lt;font style=&quot;font-size: 10px;&quot;&gt;70&lt;/font&gt;" style="edgeLabel;html=1;align=center;verticalAlign=middle;resizable=0;points=[];fontSize=16;" vertex="1" connectable="0" parent="1">
          <mxGeometry x="282" y="186" as="geometry" />
        </mxCell>
        <mxCell id="RtNyYYyS6tUQ_TJv5VPJ-35" value="&lt;font style=&quot;font-size: 10px;&quot;&gt;90&lt;/font&gt;" style="edgeLabel;html=1;align=center;verticalAlign=middle;resizable=0;points=[];fontSize=16;" vertex="1" connectable="0" parent="1">
          <mxGeometry x="442" y="186" as="geometry" />
        </mxCell>
        <mxCell id="RtNyYYyS6tUQ_TJv5VPJ-36" value="&lt;font style=&quot;font-size: 10px;&quot;&gt;100&lt;/font&gt;" style="edgeLabel;html=1;align=center;verticalAlign=middle;resizable=0;points=[];fontSize=16;" vertex="1" connectable="0" parent="1">
          <mxGeometry x="522" y="186" as="geometry">
            <mxPoint x="-2" as="offset" />
          </mxGeometry>
        </mxCell>
        <mxCell id="RtNyYYyS6tUQ_TJv5VPJ-37" value="&lt;font style=&quot;font-size: 10px;&quot;&gt;110&lt;/font&gt;" style="edgeLabel;html=1;align=center;verticalAlign=middle;resizable=0;points=[];fontSize=16;" vertex="1" connectable="0" parent="1">
          <mxGeometry x="602" y="186" as="geometry" />
        </mxCell>
        <mxCell id="RtNyYYyS6tUQ_TJv5VPJ-43" value="LCD Task&lt;span id=&quot;docs-internal-guid-93ddcce1-7fff-71a0-e8a1-f9ddcd11a120&quot;&gt;&lt;/span&gt;" style="rounded=1;whiteSpace=wrap;html=1;fontSize=16;fillColor=#e1d5e7;strokeColor=#9673a6;" vertex="1" parent="1">
          <mxGeometry x="-278" y="-82" width="120" height="60" as="geometry" />
        </mxCell>
        <mxCell id="RtNyYYyS6tUQ_TJv5VPJ-44" value="Blood Pressure Task&lt;span id=&quot;docs-internal-guid-93ddcce1-7fff-71a0-e8a1-f9ddcd11a120&quot;&gt;&lt;/span&gt;" style="rounded=1;whiteSpace=wrap;html=1;fontSize=16;fillColor=#f8cecc;strokeColor=#b85450;" vertex="1" parent="1">
          <mxGeometry x="-128" y="-82" width="120" height="60" as="geometry" />
        </mxCell>
        <mxCell id="RtNyYYyS6tUQ_TJv5VPJ-45" value="HeartBeat Task&lt;span id=&quot;docs-internal-guid-93ddcce1-7fff-71a0-e8a1-f9ddcd11a120&quot;&gt;&lt;/span&gt;" style="rounded=1;whiteSpace=wrap;html=1;fontSize=16;fillColor=#d5e8d4;strokeColor=#82b366;" vertex="1" parent="1">
          <mxGeometry x="22" y="-82" width="120" height="60" as="geometry" />
        </mxCell>
        <mxCell id="RtNyYYyS6tUQ_TJv5VPJ-46" value="Temperature Task&lt;span id=&quot;docs-internal-guid-93ddcce1-7fff-71a0-e8a1-f9ddcd11a120&quot;&gt;&lt;/span&gt;" style="rounded=1;whiteSpace=wrap;html=1;fontSize=16;fillColor=#dae8fc;strokeColor=#6c8ebf;" vertex="1" parent="1">
          <mxGeometry x="172" y="-82" width="120" height="60" as="geometry" />
        </mxCell>
        <mxCell id="RtNyYYyS6tUQ_TJv5VPJ-47" value="Siren Control Task&lt;span id=&quot;docs-internal-guid-93ddcce1-7fff-71a0-e8a1-f9ddcd11a120&quot;&gt;&lt;/span&gt;" style="rounded=1;whiteSpace=wrap;html=1;fontSize=16;fillColor=#ffe6cc;strokeColor=#d79b00;" vertex="1" parent="1">
          <mxGeometry x="322" y="-82" width="120" height="60" as="geometry" />
        </mxCell>
        <mxCell id="RtNyYYyS6tUQ_TJv5VPJ-48" value="" style="rounded=0;whiteSpace=wrap;html=1;fontSize=16;fillColor=#f8cecc;strokeColor=#b85450;" vertex="1" parent="1">
          <mxGeometry x="-258" y="135" width="25" height="40" as="geometry" />
        </mxCell>
        <mxCell id="RtNyYYyS6tUQ_TJv5VPJ-49" value="" style="rounded=0;whiteSpace=wrap;html=1;fontSize=16;fillColor=#f8cecc;strokeColor=#b85450;" vertex="1" parent="1">
          <mxGeometry x="-80.5" y="135" width="25" height="40" as="geometry" />
        </mxCell>
        <mxCell id="RtNyYYyS6tUQ_TJv5VPJ-50" value="" style="rounded=0;whiteSpace=wrap;html=1;fontSize=16;fillColor=#f8cecc;strokeColor=#b85450;" vertex="1" parent="1">
          <mxGeometry x="142" y="135" width="25" height="40" as="geometry" />
        </mxCell>
        <mxCell id="RtNyYYyS6tUQ_TJv5VPJ-51" value="" style="rounded=0;whiteSpace=wrap;html=1;fontSize=16;fillColor=#f8cecc;strokeColor=#b85450;" vertex="1" parent="1">
          <mxGeometry x="320" y="135" width="25" height="40" as="geometry" />
        </mxCell>
        <mxCell id="RtNyYYyS6tUQ_TJv5VPJ-52" value="" style="rounded=0;whiteSpace=wrap;html=1;fontSize=16;fillColor=#f8cecc;strokeColor=#b85450;" vertex="1" parent="1">
          <mxGeometry x="542" y="135" width="25" height="40" as="geometry" />
        </mxCell>
        <mxCell id="RtNyYYyS6tUQ_TJv5VPJ-53" value="" style="rounded=0;whiteSpace=wrap;html=1;fontSize=16;fillColor=#e1d5e7;strokeColor=#9673a6;" vertex="1" parent="1">
          <mxGeometry x="-223" y="135" width="15" height="40" as="geometry" />
        </mxCell>
        <mxCell id="RtNyYYyS6tUQ_TJv5VPJ-54" value="" style="rounded=0;whiteSpace=wrap;html=1;fontSize=16;fillColor=#d5e8d4;strokeColor=#82b366;" vertex="1" parent="1">
          <mxGeometry x="-233" y="135" width="10" height="40" as="geometry" />
        </mxCell>
        <mxCell id="RtNyYYyS6tUQ_TJv5VPJ-56" value="" style="rounded=0;whiteSpace=wrap;html=1;fontSize=16;fillColor=#d5e8d4;strokeColor=#82b366;" vertex="1" parent="1">
          <mxGeometry x="567" y="135" width="10" height="40" as="geometry" />
        </mxCell>
        <mxCell id="RtNyYYyS6tUQ_TJv5VPJ-57" value="" style="rounded=0;whiteSpace=wrap;html=1;fontSize=16;fillColor=#e1d5e7;strokeColor=#9673a6;" vertex="1" parent="1">
          <mxGeometry x="577" y="135" width="15" height="40" as="geometry" />
        </mxCell>
      </root>
    </mxGraphModel>
  </diagram>
</mxfile>
